<?xml version="1.0" encoding="UTF-8" standalone="no"?>
<!-- Created with Inkscape (http://www.inkscape.org/) -->

<svg
   width="210mm"
   height="297mm"
   viewBox="0 0 210 297"
   version="1.1"
   id="svg5"
   sodipodi:docname="drawing.svg"
   inkscape:version="1.2.1 (9c6d41e4, 2022-07-14)"
   xmlns:inkscape="http://www.inkscape.org/namespaces/inkscape"
   xmlns:sodipodi="http://sodipodi.sourceforge.net/DTD/sodipodi-0.dtd"
   xmlns="http://www.w3.org/2000/svg"
   xmlns:svg="http://www.w3.org/2000/svg">
  <sodipodi:namedview
     id="namedview7"
     pagecolor="#ffffff"
     bordercolor="#000000"
     borderopacity="0.25"
     inkscape:showpageshadow="2"
     inkscape:pageopacity="0.0"
     inkscape:pagecheckerboard="0"
     inkscape:deskcolor="#d1d1d1"
     inkscape:document-units="mm"
     showgrid="false"
     inkscape:zoom="1"
     inkscape:cx="449"
     inkscape:cy="236"
     inkscape:window-width="896"
     inkscape:window-height="492"
     inkscape:window-x="896"
     inkscape:window-y="544"
     inkscape:window-maximized="0"
     inkscape:current-layer="text63" />
  <defs
     id="defs2" />
  <g
     inkscape:label="Layer 1"
     inkscape:groupmode="layer"
     id="layer1">
    <g
       aria-label="Martijn is lief :)"
       id="text63"
       style="font-size:22.5778px;font-family:'Brush Script MT';-inkscape-font-specification:'Brush Script MT';stroke-width:0.264583">
      <path
         d="m 44.230515,95.902734 v 0.760677 q -1.047309,0.981163 -1.785937,1.5875 -0.727604,0.595312 -1.455209,1.080382 -0.727604,0.474045 -1.212673,0.672487 -0.474045,0.20946 -0.815799,0.20946 -0.815798,0 -1.333941,-0.60634 -0.518142,-0.606337 -0.518142,-1.565451 0,-1.102431 0.440972,-2.182813 0.451997,-1.080382 1.278819,-2.226909 0.826823,-1.157553 2.07257,-2.590712 0.926042,-1.058334 0.926042,-1.190625 0,-0.07717 -0.05512,-0.132292 -0.05512,-0.05512 -0.121267,-0.05512 -0.209462,0 -1.289844,0.926041 -1.080382,0.926042 -2.778125,2.723004 -1.686719,1.796962 -3.649045,4.27743 -0.110243,0.132292 -0.705556,0.903993 -0.584288,0.760677 -0.826823,0.992188 -0.242534,0.23151 -0.418923,0.23151 -0.308681,0 -0.540191,-0.617361 -0.220486,-0.628385 -0.220486,-1.333941 0,-0.429948 0.275607,-0.926042 0.286632,-0.496093 1.223698,-1.774913 0.94809,-1.289843 1.565452,-2.171788 0.617361,-0.881944 1.355989,-2.138715 0.518142,-0.87092 0.760677,-1.389063 0.253559,-0.518142 0.253559,-0.915017 0,-0.341754 -0.198437,-0.341754 -0.418924,0 -1.576476,1.12448 -1.157552,1.113454 -2.866319,3.318316 -1.697743,2.204861 -3.549827,5.104253 -0.606337,0.992188 -0.859896,1.333941 -0.253559,0.341754 -0.562239,0.341754 -0.385851,0 -0.727604,-0.815799 -0.33073,-0.826823 -0.33073,-1.333941 0,-0.165365 0.132292,-0.363802 1.455208,-1.940278 2.392274,-3.296267 0.937066,-1.35599 1.664671,-2.568664 0.727604,-1.223698 1.058333,-2.006423 0.330729,-0.79375 0.330729,-1.245747 0,-0.474045 -0.429948,-0.474045 -0.352778,0 -1.201649,0.451997 -0.848872,0.451996 -2.14974,1.234722 -1.289844,0.782725 -2.072569,1.201649 -0.782726,0.407899 -1.168577,0.407899 -0.363802,0 -0.363802,-0.407899 0,-0.23151 0.154341,-1.058333 0.15434,-0.837847 0.319704,-1.179601 0.231511,-0.440972 1.179601,-1.168576 0.959115,-0.727605 1.058333,-0.727605 0.08819,0 0.08819,0.07717 0,0.0441 -0.08819,0.132291 -0.451996,0.363802 -0.672482,0.595313 -0.220486,0.23151 -0.275608,0.507118 2.017448,-1.212674 3.604948,-1.841059 1.598524,-0.63941 2.215886,-0.63941 0.30868,0 0.584288,0.418924 0.275607,0.407899 0.463021,0.959114 0.198437,0.540191 0.198437,0.694532 0,0.562239 -0.286632,1.333941 -0.286632,0.760677 -0.782726,1.774913 -0.485069,1.014236 -1.212673,2.53559 0.573264,-0.738628 1.091406,-1.367014 0.518142,-0.628385 1.025261,-1.223698 0.518142,-0.595312 1.047309,-1.201649 0.716579,-0.826823 1.609548,-1.576476 0.892969,-0.760677 1.66467,-1.234722 0.782726,-0.485069 1.058334,-0.485069 0.38585,0 0.683507,0.429947 0.30868,0.418924 0.30868,0.903993 0,0.319705 -0.418923,1.223698 -0.418924,0.903993 -1.223698,2.315105 -0.804775,1.411111 -2.127691,3.63802 1.25677,-1.333941 2.61276,-2.745052 1.35599,-1.411111 2.017448,-2.061545 0.661458,-0.650434 1.102431,-0.992187 0.606336,-0.463021 1.212673,-0.992188 0.617361,-0.540191 0.970139,-0.848871 0.352778,-0.308681 0.628385,-0.474045 0.275608,-0.165365 0.507119,-0.165365 0.286631,0 0.716579,0.661458 0.440973,0.661459 0.440973,0.848872 0,0.23151 -0.264584,0.551215 -0.253559,0.319705 -1.069357,1.190625 -1.499306,1.609549 -2.601736,3.25217 -1.102431,1.631597 -1.675695,2.987587 -0.56224,1.344965 -0.56224,2.127691 0,0.485069 0.176389,0.705556 0.187414,0.220486 0.573264,0.220486 0.352778,0 0.650434,-0.132292 0.308681,-0.132292 0.672483,-0.374826 0.374826,-0.242535 0.705555,-0.463021 0.463021,-0.275608 0.903994,-0.584288 0.451996,-0.319705 0.694531,-0.496094 0.253559,-0.187413 0.374826,-0.264583 z"
         id="path349" />
      <path
         d="m 45.443188,93.97348 q 1.675695,-1.521354 3.25217,-2.259983 1.576476,-0.738628 2.436372,-0.738628 0.23151,0 0.429948,0.198437 0.198437,0.187414 0.30868,0.440973 0.121268,0.253559 0.121268,0.374826 0,0.198438 -0.154341,0.297656 -0.15434,0.08819 -0.540191,0.220486 0.07717,0.176389 0.198438,0.451997 0.121267,0.275608 0.187413,0.451996 0.06615,0.165365 0.06615,0.297657 0,0.264583 -0.540191,0.992187 -0.529167,0.71658 -0.749653,1.058334 -0.209462,0.341753 -0.209462,0.837847 0,0.815798 0.749653,0.815798 0.771701,0 2.414323,-1.444184 v 0.672483 q -2.789149,3.09783 -3.990799,3.09783 -0.429948,0 -0.617361,-0.286632 -0.176389,-0.275608 -0.176389,-0.826823 0,-0.87092 0.628386,-2.524566 -1.609549,1.785938 -2.392275,2.546615 -0.782725,0.749652 -1.289843,0.749652 -0.242535,0 -0.606337,-0.418923 -0.363802,-0.418924 -0.650434,-1.080382 -0.275608,-0.672483 -0.275608,-1.389063 0,-0.518142 0.09922,-0.859896 0.09922,-0.352777 0.385851,-0.716579 0.286632,-0.363802 0.915017,-0.959115 z m 5.280642,-1.212674 q -2.866319,1.311893 -4.090017,2.22691 -1.212674,0.915018 -1.212674,1.885156 0,0.352778 0.121268,0.584289 0.121267,0.220486 0.330729,0.220486 0.121267,0 0.429948,-0.154341 1.157552,-0.683507 2.116667,-1.774913 0.959114,-1.10243 2.304079,-2.987587 z"
         id="path351" />
      <path
         d="m 53.204299,96.795702 v -0.71658 q 0.595312,-0.705555 0.903993,-1.201649 -0.352778,-0.121267 -0.518142,-0.297656 -0.154341,-0.176389 -0.154341,-0.529167 0,-0.396875 0.330729,-1.003212 0.33073,-0.606336 0.815799,-1.135503 0.48507,-0.529167 0.881945,-0.683507 0.15434,-0.07717 0.297656,-0.07717 0.220486,0 0.220486,0.209462 0,0.187413 -0.341754,0.760677 2.271007,-0.352778 2.86632,-0.352778 0.23151,0 0.319705,0.0441 0.187413,0.09922 0.30868,0.463021 0.121268,0.363802 0.121268,0.727604 0,0.231511 -0.209462,0.507118 -0.198438,0.264584 -0.694531,0.782726 -0.584289,0.628385 -0.981164,1.367014 -0.396875,0.738628 -0.396875,1.113455 0,0.518142 0.63941,0.518142 0.672483,0 2.337153,-1.367014 v 0.738629 q -0.915017,0.959114 -1.51033,1.510329 -0.595312,0.551216 -1.10243,0.881945 -0.507119,0.319705 -0.903994,0.319705 -0.46302,0 -0.771701,-0.418924 -0.30868,-0.429948 -0.30868,-1.234722 0,-0.474045 0.242534,-1.080382 0.242535,-0.606337 0.705556,-1.311892 0.474045,-0.71658 1.058333,-1.422136 -0.30868,0.06615 -0.694531,0.143316 -0.385851,0.06615 -0.815799,0.143316 -0.429948,0.07717 -0.661458,0.121268 -0.683507,1.367013 -1.984375,2.480468 z"
         id="path353" />
      <path
         d="m 63.776606,90.225216 h 0.474045 q 0.584289,-1.047309 1.058334,-1.477257 0.474045,-0.440972 1.080382,-0.440972 0.606337,0 0.606337,0.275608 0,0.132291 -0.474046,0.716579 -0.474045,0.584289 -0.716579,0.981164 0.374826,0.0441 0.661458,0.07717 0.297656,0.03307 0.463021,0.05512 -0.628386,1.168577 -1.576476,2.392275 -0.308681,-0.02205 -0.518142,-0.03307 -0.209462,-0.02205 -0.429948,-0.03307 -0.209462,-0.02205 -0.518143,-0.0441 -0.595312,0.959114 -1.003211,1.719791 -0.396875,0.749653 -0.617362,1.378038 -0.209461,0.628386 -0.209461,1.190625 0,0.760678 0.606336,0.760678 0.418924,0 1.091407,-0.440973 0.683507,-0.451996 1.81901,-1.378038 v 0.738629 q -2.976562,3.230121 -4.398698,3.230121 -0.496094,0 -0.804774,-0.385851 -0.297656,-0.38585 -0.297656,-0.992187 0,-0.407899 0.165364,-0.970139 0.176389,-0.56224 0.617361,-1.697743 -0.15434,0.132292 -0.297656,0.264583 -0.132292,0.121268 -0.253559,0.231511 -0.110243,0.09922 -0.242535,0.220486 -0.132291,0.110243 -0.264583,0.23151 v -0.760677 q 1.157552,-0.970139 2.800174,-3.40651 -0.165365,-0.01102 -0.308681,-0.01102 -0.143316,-0.01102 -0.341753,-0.01102 -0.650434,0 -0.970139,0.08819 -0.132292,0.03307 -0.253559,0.07717 -0.110243,0.03307 -0.154341,0.03307 -0.0441,0 -0.0441,-0.06615 0,-0.363802 0.451997,-1.091406 0.363802,-0.617362 0.683507,-0.915018 0.330729,-0.297656 0.79375,-0.396875 0.474045,-0.110243 1.322916,-0.110243 z"
         id="path355" />
      <path
         d="m 70.071488,91.018966 q -0.275608,0 -0.529167,-0.209462 -0.242535,-0.209461 -0.242535,-0.529166 0,-0.48507 0.463021,-1.080382 0.463021,-0.595313 0.959115,-0.595313 0.330729,0 0.551215,0.209462 0.220486,0.198438 0.220486,0.584288 0,0.474045 -0.451996,1.047309 -0.451997,0.573264 -0.970139,0.573264 z m 0.749652,4.927865 v 0.804774 q -1.069357,1.378038 -1.995399,2.083594 -0.926042,0.694531 -1.576476,0.694531 -0.903993,0 -1.344965,-0.94809 -0.440972,-0.948091 -0.440972,-2.07257 0,-0.429948 0.08819,-0.815798 0.08819,-0.396875 0.209462,-0.650434 0.121268,-0.253559 0.451997,-0.79375 1.565451,-2.436372 2.866319,-2.436372 0.672483,0 0.672483,0.518143 0,0.352777 -0.440972,1.10243 -0.429948,0.749653 -0.771702,1.069358 -0.959114,0.926041 -1.256771,1.289843 -0.286632,0.363803 -0.286632,0.826823 0,0.396875 0.297657,0.661459 0.297656,0.264583 0.771701,0.264583 0.518142,0 1.135504,-0.374826 0.628385,-0.385851 1.620572,-1.223698 z"
         id="path357" />
      <path
         d="m 78.449959,88.26289 q 0,0.330729 -0.253559,0.926041 -0.275607,0.804775 -0.496093,1.069358 -0.209462,0.264583 -0.650434,0.264583 -0.948091,0 -0.948091,-0.628385 0,-0.496094 0.584288,-1.422135 0.308681,-0.496094 0.496094,-0.606337 0.187413,-0.121268 0.606337,-0.121268 0.661458,0 0.661458,0.518143 z m -7.06658,5.71059 0.308681,-0.87092 2.039497,-0.926042 q 1.81901,-0.859896 2.634809,-0.859896 0.639409,0 0.639409,0.584289 0,0.209461 -0.176389,0.683507 -0.165364,0.46302 -0.573263,1.333941 -0.396875,0.87092 -0.926042,1.984375 -0.529167,1.10243 -1.102431,2.271006 0.826823,-0.562239 1.444184,-1.036284 0.628386,-0.48507 1.466233,-1.212674 l 0.02205,0.782726 q -2.116667,1.830035 -3.924653,3.638022 -1.091406,2.12769 -1.929254,3.20807 -0.837847,1.08038 -1.256771,1.08038 -0.297656,0 -0.297656,-0.58428 0,-0.71658 0.319705,-1.44419 0.319705,-0.71658 0.981163,-1.52135 0.661459,-0.79375 1.565452,-1.620576 1.400086,-2.756076 1.97335,-4.001823 0.584289,-1.256771 0.584289,-1.642621 0,-0.242535 -0.231511,-0.242535 -0.121267,0 -1.642621,0.71658 -1.521355,0.705555 -1.896181,0.705555 -0.23151,0 -0.23151,-0.253559 0,-0.165364 0.209461,-0.771701 z"
         id="path359" />
      <path
         d="m 84.491277,93.951431 q -1.940278,2.160764 -1.940278,3.009636 0,0.474045 0.385851,0.474045 0.319705,0 0.826823,-0.330729 0.518142,-0.341754 1.609549,-1.201649 v 0.760677 q -1.565452,1.543402 -2.403299,2.226909 -0.837847,0.683507 -1.367014,0.683507 -0.903993,0 -0.903993,-1.190625 0,-0.352778 0.110243,-0.694531 0.110243,-0.341753 0.297656,-0.705556 0.198438,-0.374826 0.595313,-1.058333 0.396875,-0.694531 0.915017,-1.565451 -0.628385,0.319705 -1.576476,1.267795 -0.617361,0.595312 -1.047309,1.135503 -0.429948,0.529167 -0.926041,1.190625 -0.48507,0.650434 -0.71658,0.881945 -0.220486,0.220486 -0.451997,0.220486 -0.352777,0 -0.650434,-0.738629 -0.297656,-0.738628 -0.297656,-1.719791 0,-0.606337 0.132292,-0.948091 0.143316,-0.341753 0.551215,-0.970138 0.760677,-1.168577 1.311892,-1.708768 0.551216,-0.551215 1.058334,-0.551215 0.352777,0 0.562239,0.121267 0.220486,0.121268 0.220486,0.374827 0,0.110243 -0.06614,0.23151 -0.06615,0.121267 -0.154341,0.220486 -0.07717,0.09922 -0.341753,0.385851 -1.74184,1.929253 -1.74184,2.502517 0,0.319705 0.209461,0.319705 0.132292,0 0.507118,-0.418923 0.385851,-0.429948 0.981164,-1.113455 0.606336,-0.694532 1.422135,-1.444184 0.826823,-0.749653 1.874132,-1.444184 0.584288,-0.4079 0.970139,-0.4079 0.176389,0 0.341753,0.48507 0.176389,0.485069 0.176389,0.981163 0,0.242535 -0.474045,0.738628 z"
         id="path361" />
      <path
         d="m 96.166016,91.018966 q -0.275608,0 -0.529167,-0.209462 -0.242534,-0.209461 -0.242534,-0.529166 0,-0.48507 0.46302,-1.080382 0.463021,-0.595313 0.959115,-0.595313 0.330729,0 0.551215,0.209462 0.220486,0.198438 0.220486,0.584288 0,0.474045 -0.451996,1.047309 -0.451997,0.573264 -0.970139,0.573264 z m 0.749653,4.927865 v 0.804774 q -1.069358,1.378038 -1.9954,2.083594 -0.926041,0.694531 -1.576475,0.694531 -0.903993,0 -1.344966,-0.94809 -0.440972,-0.948091 -0.440972,-2.07257 0,-0.429948 0.08819,-0.815798 0.08819,-0.396875 0.209461,-0.650434 0.121268,-0.253559 0.451997,-0.79375 1.565451,-2.436372 2.866319,-2.436372 0.672483,0 0.672483,0.518143 0,0.352777 -0.440972,1.10243 -0.429948,0.749653 -0.771702,1.069358 -0.959114,0.926041 -1.25677,1.289843 -0.286632,0.363803 -0.286632,0.826823 0,0.396875 0.297656,0.661459 0.297656,0.264583 0.771701,0.264583 0.518143,0 1.135504,-0.374826 0.628385,-0.385851 1.620573,-1.223698 z"
         id="path363" />
      <path
         d="m 96.772356,96.255511 v -0.264583 q 2.844271,-2.998611 3.913624,-4.20026 0.24254,-1.35599 1.16858,-1.35599 0.23151,0 0.49609,0.132292 l 0.0661,0.209461 q -0.0441,0.132292 -0.0441,0.374827 0,0.209462 0.15434,0.782725 0.16537,0.56224 0.25356,0.948091 0.0882,0.38585 0.0882,0.87092 0,0.727604 -0.33073,1.400087 -0.33073,0.661458 -0.95912,1.278819 -0.62838,0.606337 -1.62057,1.245747 0.39688,0.06615 0.62839,0.06615 0.45199,0 0.97013,-0.220487 0.52917,-0.23151 1.06936,-0.606336 0.55122,-0.385851 1.27882,-0.992188 v 0.738629 q -1.41111,1.378038 -2.52456,2.094618 -1.11346,0.705555 -1.918234,0.705555 -1.036284,0 -1.918229,-0.881944 -0.518142,-0.529167 -0.650434,-1.014236 -0.121267,-0.48507 -0.121267,-1.311893 z m 4.112064,-1.686718 -0.19844,-1.609549 q -0.6835,0.771701 -2.921437,2.965538 0.661459,0.143316 0.903993,0.385851 0.242535,0.242535 0.683507,0.937066 0.749657,-0.308681 1.146527,-0.837847 0.4079,-0.540191 0.4079,-1.466233 0,-0.110243 -0.011,-0.198438 0,-0.08819 -0.011,-0.176388 z"
         id="path365" />
      <path
         d="m 115.46958,95.825563 v 0.815799 q -2.30408,3.053733 -3.74827,3.053733 -0.78272,0 -1.23472,-0.848872 -0.44097,-0.859896 -0.44097,-2.248958 0,-1.124479 0.52917,-2.667882 0.52916,-1.554427 1.41111,-3.141927 0.89297,-1.598525 1.84106,-2.778125 0.95911,-1.190625 1.77491,-1.66467 0.33073,-0.198438 0.51814,-0.198438 0.23151,0 0.30868,0.209462 0.0772,0.198437 0.0772,0.694531 0,1.532379 -1.24574,3.770313 -1.24575,2.226909 -3.47266,4.553038 -0.11024,0.573264 -0.11024,0.881944 0,0.705556 0.29765,1.146528 0.30868,0.440972 0.84887,0.440972 0.27561,0 0.59532,-0.209462 0.3197,-0.220486 0.67248,-0.54019 0.35278,-0.319705 1.37804,-1.267796 z m -3.29627,-1.984375 q 0.57326,-0.562239 1.10243,-1.278819 0.54019,-0.71658 1.01424,-1.532379 0.47404,-0.815798 0.73863,-1.466232 0.2756,-0.650434 0.2756,-0.981163 0,-0.253559 -0.17639,-0.253559 -0.0661,0 -0.25355,0.121267 -0.67249,0.551215 -1.51033,2.160764 -0.83785,1.598524 -1.19063,3.230121 z"
         id="path367" />
      <path
         d="m 119.89032,91.018966 q -0.27561,0 -0.52917,-0.209462 -0.24253,-0.209461 -0.24253,-0.529166 0,-0.48507 0.46302,-1.080382 0.46302,-0.595313 0.95911,-0.595313 0.33073,0 0.55122,0.209462 0.22049,0.198438 0.22049,0.584288 0,0.474045 -0.452,1.047309 -0.452,0.573264 -0.97014,0.573264 z m 0.74965,4.927865 v 0.804774 q -1.06935,1.378038 -1.9954,2.083594 -0.92604,0.694531 -1.57647,0.694531 -0.904,0 -1.34497,-0.94809 -0.44097,-0.948091 -0.44097,-2.07257 0,-0.429948 0.0882,-0.815798 0.0882,-0.396875 0.20947,-0.650434 0.12126,-0.253559 0.45199,-0.79375 1.56545,-2.436372 2.86632,-2.436372 0.67249,0 0.67249,0.518143 0,0.352777 -0.44098,1.10243 -0.42994,0.749653 -0.7717,1.069358 -0.95911,0.926041 -1.25677,1.289843 -0.28663,0.363803 -0.28663,0.826823 0,0.396875 0.29766,0.661459 0.29765,0.264583 0.7717,0.264583 0.51814,0 1.1355,-0.374826 0.62839,-0.385851 1.62057,-1.223698 z"
         id="path369" />
      <path
         d="m 122.30465,96.343706 v 0.275607 q 0,0.650434 0.3197,1.014236 0.31971,0.363803 0.83785,0.363803 0.54019,0 1.11345,-0.253559 0.58429,-0.253559 1.15756,-0.672483 0.57326,-0.418924 1.40008,-1.124479 v 0.672482 q -1.24574,1.499306 -2.33715,2.30408 -1.09141,0.79375 -2.21589,0.79375 -0.98116,0 -1.55442,-0.760677 -0.57327,-0.760677 -0.57327,-2.083594 0,-1.157552 0.54019,-2.094618 0.54019,-0.94809 1.76389,-1.995399 0.83785,-0.71658 1.66467,-1.080382 0.82683,-0.363802 1.47726,-0.363802 0.51814,0 0.8158,0.242535 0.30868,0.23151 0.30868,0.705555 0,0.694532 -0.51814,1.389063 -0.51815,0.683507 -1.5875,1.367014 -1.05834,0.672482 -2.61276,1.300868 z m 0.11024,-0.71658 q 0.99219,-0.385851 1.69774,-0.959115 0.70556,-0.573264 1.03629,-1.091406 0.34175,-0.529167 0.34175,-0.771701 0,-0.253559 -0.23151,-0.253559 -0.19844,0 -0.65043,0.253559 -0.44098,0.253559 -0.904,0.661458 -0.45199,0.407899 -0.8158,0.959115 -0.3638,0.551215 -0.47404,1.201649 z"
         id="path371" />
      <path
         d="m 133.27383,95.946831 v 0.760677 q -0.66146,0.661458 -1.00321,0.959114 -0.34175,0.297657 -0.93707,0.606337 0,1.003212 -0.0992,1.708768 -0.0992,0.705553 -0.44098,1.477253 -0.34175,0.78273 -1.05833,1.70877 -0.70556,0.91502 -1.38906,1.40009 -0.68351,0.49609 -1.06936,0.49609 -0.42995,0 -0.79375,-0.70555 -0.3638,-0.70556 -0.3638,-1.75287 0,-1.00321 0.34175,-2.11667 0.34176,-1.11345 1.05833,-2.877339 -0.54019,-0.705556 -0.54019,-1.400087 0,-0.56224 0.28664,-0.859896 0.28663,-0.297656 0.81579,-0.540191 0.38586,-0.606337 0.72761,-1.02526 0.35278,-0.429948 0.94809,-1.135504 1.14653,-2.822222 2.68993,-5.512152 0.42995,-0.749653 0.61736,-1.003212 0.18741,-0.264584 0.39688,-0.264584 0.18741,0 0.33072,0.275608 0.14332,0.275608 0.14332,0.71658 0,0.540191 -0.12127,0.992187 -0.11024,0.451997 -0.33073,0.915018 -0.20946,0.451996 -0.59531,1.091406 -0.37482,0.63941 -0.46302,0.79375 -0.55121,0.970139 -1.24575,2.14974 -0.69453,1.1796 -1.10243,1.863107 -0.39687,0.683507 -0.57326,1.025261 0.59531,0.518142 0.93707,0.892968 0.35277,0.374827 0.60633,0.892969 0.37483,-0.143316 0.68351,-0.341753 0.30868,-0.198438 0.7276,-0.540191 0.41893,-0.352778 0.8158,-0.650434 z m -3.29626,2.954514 -0.022,-0.231511 q -0.30868,0.03307 -0.4961,0.02205 -0.18741,-0.02205 -0.44097,-0.09922 -0.24253,-0.07717 -0.38585,-0.143316 -0.13229,-0.06615 -0.29766,-0.132292 -0.83784,2.050524 -0.83784,3.406514 0,0.67248 0.19843,1.14652 0.20947,0.47405 0.48507,0.47405 0.28664,0 0.71658,-0.50712 0.44098,-0.50712 0.76068,-1.4993 0.31971,-0.99219 0.31971,-2.436375 z"
         id="path373" />
      <path
         d="m 142.47912,99.463584 q -0.54019,0 -0.54019,-0.562239 0,-0.4079 0.34176,-0.848872 0.35277,-0.440972 0.82682,-0.749653 0.48507,-0.319705 0.82682,-0.330729 0.35278,-0.01102 0.35278,0.396875 0,0.319705 -0.30868,0.826823 -0.29766,0.496094 -0.73863,0.881945 -0.42995,0.38585 -0.76068,0.38585 z m 2.19384,-4.740451 q -0.26458,0 -0.4079,-0.176389 -0.13229,-0.187413 -0.13229,-0.474045 0,-0.341754 0.33073,-0.837847 0.34175,-0.496094 0.80477,-0.859896 0.46302,-0.363802 0.78273,-0.363802 0.23151,0 0.3638,0.15434 0.13229,0.143316 0.13229,0.385851 0,0.297656 -0.3197,0.837847 -0.31971,0.540191 -0.76068,0.937066 -0.42995,0.396875 -0.79375,0.396875 z"
         id="path375" />
      <path
         d="m 152.43407,86.256466 q -0.11024,0.220486 -0.19844,0.220486 -0.0551,0 -0.0551,-0.09922 0.011,-0.110243 0.011,-0.187413 0,-0.650434 0.33073,-1.058333 0.33073,-0.407899 0.7276,-0.407899 0.35278,0 0.69453,0.396875 0.34176,0.396875 0.56224,1.157552 0.23151,0.749653 0.23151,1.763889 0,0.959114 -0.17639,1.97335 -0.17639,1.003212 -0.54019,2.127691 -0.3638,1.124479 -0.90399,2.259983 -1.11346,2.436371 -1.97335,3.682118 -0.8599,1.245747 -1.43316,1.245747 -0.25356,0 -0.42995,-0.198438 -0.16536,-0.198437 -0.16536,-0.485069 0,-0.231511 0.14331,-0.451997 0.99219,-1.576476 1.65365,-2.932465 0.66146,-1.35599 1.11345,-2.656858 0.452,-1.311892 0.65044,-2.370226 0.20946,-1.069357 0.20946,-1.995399 0,-0.760677 -0.12127,-1.311892 -0.12127,-0.56224 -0.33073,-0.672483 z"
         id="path377" />
    </g>
    <text
       xml:space="preserve"
       style="font-style:normal;font-variant:normal;font-weight:normal;font-stretch:normal;font-size:22.5778px;font-family:'Brush Script MT';-inkscape-font-specification:'Brush Script MT';fill:#000000;stroke-width:0.264583"
       x="-49.598053"
       y="97.758484"
       id="text189"><tspan
         sodipodi:role="line"
         id="tspan187"
         style="stroke-width:0.264583"></tspan></text>
  </g>
</svg>
